<svg width="35" height="35" viewBox="0 0 35 35" fill="none" xmlns="http://www.w3.org/2000/svg">
<path
  d="M26.25 30.625H28.4375V28.4375H30.625V26.25H28.4375V24.0625H26.25V21.875H24.0625V19.6875H21.875V15.3125H24.0625V13.125H26.25V10.9375H28.4375V8.75H30.625V6.5625H28.4375V4.375H26.25V6.5625H24.0625V8.75H21.875V10.9375H19.6875V13.125H15.3125V10.9375H13.125V8.75H10.9375V6.5625H8.75V4.375H6.5625V6.5625H4.375V8.75H6.5625V10.9375H8.75V13.125H10.9375V15.3125H13.125V19.6875H10.9375V21.875H8.75V24.0625H6.5625V26.25H4.375V28.4375H6.5625V30.625H8.75V28.4375H10.9375V26.25H13.125V24.0625H15.3125V21.875H19.6875V24.0625H21.875V26.25H24.0625V28.4375H26.25M30.625 35H24.0625V32.8125H21.875V30.625H19.6875V28.4375H15.3125V30.625H13.125V32.8125H10.9375V35H4.375V32.8125H2.1875V30.625H0V24.0625H2.1875V21.875H4.375V19.6875H6.5625V15.3125H4.375V13.125H2.1875V10.9375H0V4.375H2.1875V2.1875H4.375V0H10.9375V2.1875H13.125V4.375H15.3125V6.5625H19.6875V4.375H21.875V2.1875H24.0625V0H30.625V2.1875H32.8125V4.375H35V10.9375H32.8125V13.125H30.625V15.3125H28.4375V19.6875H30.625V21.875H32.8125V24.0625H35V30.625H32.8125V32.8125H30.625V35Z"
  fill="currentColor"
/>
</svg>