<svg xmlns="http://www.w3.org/2000/svg" xmlns:xlink="http://www.w3.org/1999/xlink" width="500" zoomAndPan="magnify" viewBox="0 0 375 374.999991" height="500" preserveAspectRatio="xMidYMid meet" version="1.0"><defs><g/></defs><g fill="currentColor" fill-opacity="1"><g transform="translate(79.869615, 201.38379)"><g><path d="M 37.296875 -34.15625 C 37.296875 -34.007812 37.222656 -33.863281 37.078125 -33.71875 C 36.472656 -33 35.84375 -32.296875 35.1875 -31.609375 C 34.539062 -30.921875 33.898438 -30.222656 33.265625 -29.515625 C 33.191406 -29.441406 33.097656 -29.359375 32.984375 -29.265625 C 32.867188 -29.171875 32.738281 -29.085938 32.59375 -29.015625 C 32.21875 -28.898438 31.785156 -29.082031 31.296875 -29.5625 C 30.816406 -30.050781 30.445312 -30.40625 30.1875 -30.625 C 28.957031 -31.519531 27.648438 -32.265625 26.265625 -32.859375 C 24.878906 -33.460938 23.40625 -33.765625 21.84375 -33.765625 L 21.671875 -33.765625 C 18.679688 -33.734375 16.078125 -32.921875 13.859375 -31.328125 C 11.640625 -29.742188 10.023438 -27.550781 9.015625 -24.75 C 8.566406 -23.519531 8.378906 -22.164062 8.453125 -20.6875 C 8.523438 -19.21875 8.8125 -17.765625 9.3125 -16.328125 C 9.820312 -14.890625 10.503906 -13.582031 11.359375 -12.40625 C 12.222656 -11.226562 13.21875 -10.285156 14.34375 -9.578125 C 16.3125 -8.347656 18.625 -7.734375 21.28125 -7.734375 C 23.144531 -7.734375 24.84375 -8.03125 26.375 -8.625 C 27.90625 -9.21875 29.15625 -10.054688 30.125 -11.140625 C 30.644531 -11.773438 31.128906 -12.175781 31.578125 -12.34375 C 32.023438 -12.507812 32.566406 -12.296875 33.203125 -11.703125 C 33.804688 -11.140625 34.378906 -10.550781 34.921875 -9.9375 C 35.460938 -9.320312 35.972656 -8.695312 36.453125 -8.0625 C 36.523438 -7.914062 36.609375 -7.773438 36.703125 -7.640625 C 36.796875 -7.515625 36.863281 -7.359375 36.90625 -7.171875 C 37.050781 -6.609375 36.863281 -6.082031 36.34375 -5.59375 C 35.820312 -5.113281 35.210938 -4.695312 34.515625 -4.34375 C 33.828125 -3.988281 33.296875 -3.695312 32.921875 -3.46875 C 31.210938 -2.382812 29.328125 -1.546875 27.265625 -0.953125 C 25.210938 -0.359375 23.085938 -0.0625 20.890625 -0.0625 C 17.941406 -0.0625 15.316406 -0.488281 13.015625 -1.34375 C 10.722656 -2.195312 8.765625 -3.320312 7.140625 -4.71875 C 5.515625 -6.125 4.1875 -7.65625 3.15625 -9.3125 C 2.132812 -10.976562 1.398438 -12.632812 0.953125 -14.28125 C -0.015625 -17.820312 -0.226562 -21.265625 0.3125 -24.609375 C 0.851562 -27.953125 2.128906 -30.929688 4.140625 -33.546875 C 6.046875 -36.085938 8.4375 -38.054688 11.3125 -39.453125 C 14.1875 -40.847656 17.265625 -41.546875 20.546875 -41.546875 L 20.71875 -41.546875 C 23.101562 -41.546875 25.441406 -41.21875 27.734375 -40.5625 C 30.035156 -39.914062 32.160156 -38.882812 34.109375 -37.46875 C 34.398438 -37.238281 34.789062 -36.945312 35.28125 -36.59375 C 35.769531 -36.238281 36.21875 -35.851562 36.625 -35.4375 C 37.03125 -35.03125 37.253906 -34.601562 37.296875 -34.15625 Z M 37.296875 -34.15625 "/></g></g></g><g fill="currentColor" fill-opacity="1"><g transform="translate(120.071632, 201.38379)"><g><path d="M 0.0625 -16.234375 C 0.0195312 -18.328125 0.425781 -20.410156 1.28125 -22.484375 C 2.144531 -24.554688 3.34375 -26.375 4.875 -27.9375 C 6.332031 -29.4375 7.992188 -30.578125 9.859375 -31.359375 C 11.722656 -32.140625 13.644531 -32.53125 15.625 -32.53125 C 15.8125 -32.53125 16.003906 -32.53125 16.203125 -32.53125 C 16.410156 -32.53125 16.609375 -32.53125 16.796875 -32.53125 C 16.796875 -32.53125 16.804688 -32.53125 16.828125 -32.53125 C 16.847656 -32.53125 16.859375 -32.53125 16.859375 -32.53125 C 20.109375 -32.53125 22.972656 -31.859375 25.453125 -30.515625 C 27.929688 -29.171875 29.878906 -27.304688 31.296875 -24.921875 C 32.722656 -22.535156 33.4375 -19.769531 33.4375 -16.625 C 33.4375 -11.738281 31.90625 -7.765625 28.84375 -4.703125 C 27.34375 -3.210938 25.554688 -2.066406 23.484375 -1.265625 C 21.421875 -0.460938 19.175781 -0.0625 16.75 -0.0625 C 14.425781 -0.0625 12.265625 -0.476562 10.265625 -1.3125 C 8.273438 -2.15625 6.523438 -3.3125 5.015625 -4.78125 C 3.503906 -6.257812 2.304688 -7.976562 1.421875 -9.9375 C 0.546875 -11.894531 0.09375 -13.992188 0.0625 -16.234375 Z M 16.578125 -25.875 C 15.265625 -25.875 13.992188 -25.453125 12.765625 -24.609375 C 11.535156 -23.773438 10.519531 -22.691406 9.71875 -21.359375 C 8.914062 -20.035156 8.492188 -18.644531 8.453125 -17.1875 C 8.421875 -15.582031 8.679688 -14.03125 9.234375 -12.53125 C 9.796875 -11.039062 10.65625 -9.789062 11.8125 -8.78125 C 12.96875 -7.78125 14.40625 -7.1875 16.125 -7 C 18.03125 -6.8125 19.632812 -7.109375 20.9375 -7.890625 C 22.25 -8.679688 23.257812 -9.753906 23.96875 -11.109375 C 24.675781 -12.472656 25.066406 -13.96875 25.140625 -15.59375 C 25.210938 -17.21875 24.96875 -18.773438 24.40625 -20.265625 C 23.851562 -21.765625 22.957031 -23.023438 21.71875 -24.046875 C 20.488281 -25.078125 18.925781 -25.6875 17.03125 -25.875 C 16.945312 -25.875 16.867188 -25.875 16.796875 -25.875 C 16.722656 -25.875 16.648438 -25.875 16.578125 -25.875 Z M 16.578125 -25.875 "/></g></g></g><g fill="currentColor" fill-opacity="1"><g transform="translate(156.41018, 201.38379)"><g><path d="M 35.78125 -25.375 C 34.101562 -25.144531 32.832031 -24.617188 31.96875 -23.796875 C 31.113281 -22.972656 30.523438 -21.953125 30.203125 -20.734375 C 29.890625 -19.523438 29.734375 -18.25 29.734375 -16.90625 C 29.734375 -15.5625 29.753906 -14.238281 29.796875 -12.9375 C 29.796875 -12.675781 29.820312 -12.085938 29.875 -11.171875 C 29.925781 -10.253906 29.972656 -9.207031 30.015625 -8.03125 C 30.054688 -6.851562 30.046875 -5.695312 29.984375 -4.5625 C 29.929688 -3.425781 29.800781 -2.472656 29.59375 -1.703125 C 29.382812 -0.941406 29.078125 -0.523438 28.671875 -0.453125 C 27.992188 -0.378906 27.234375 -0.273438 26.390625 -0.140625 C 25.554688 -0.00390625 24.75 0.0351562 23.96875 -0.015625 C 23.1875 -0.078125 22.53125 -0.3125 22 -0.71875 C 21.476562 -1.132812 21.21875 -1.828125 21.21875 -2.796875 C 21.1875 -5.554688 21.171875 -8.328125 21.171875 -11.109375 C 21.171875 -13.890625 21.054688 -16.644531 20.828125 -19.375 C 20.710938 -20.90625 20.289062 -22.257812 19.5625 -23.4375 C 18.84375 -24.613281 17.601562 -25.273438 15.84375 -25.421875 C 15.738281 -25.460938 15.59375 -25.484375 15.40625 -25.484375 C 13.832031 -25.484375 12.566406 -25.109375 11.609375 -24.359375 C 10.660156 -23.609375 9.953125 -22.632812 9.484375 -21.4375 C 9.023438 -20.25 8.71875 -18.992188 8.5625 -17.671875 C 8.414062 -16.347656 8.363281 -15.085938 8.40625 -13.890625 C 8.4375 -12.242188 8.460938 -10.585938 8.484375 -8.921875 C 8.503906 -7.265625 8.515625 -5.613281 8.515625 -3.96875 C 8.546875 -2.664062 8.410156 -1.757812 8.109375 -1.25 C 7.816406 -0.75 7.316406 -0.453125 6.609375 -0.359375 C 5.898438 -0.265625 4.929688 -0.164062 3.703125 -0.0625 C 2.273438 0.0507812 1.316406 -0.257812 0.828125 -1 C 0.347656 -1.75 0.109375 -2.78125 0.109375 -4.09375 C 0.109375 -6.738281 0.109375 -9.40625 0.109375 -12.09375 C 0.109375 -14.78125 0.109375 -17.46875 0.109375 -20.15625 C 0.109375 -21.5 0.109375 -22.832031 0.109375 -24.15625 C 0.109375 -25.488281 0.109375 -26.828125 0.109375 -28.171875 C 0.109375 -28.691406 0.078125 -29.320312 0.015625 -30.0625 C -0.0351562 -30.8125 0.125 -31.375 0.5 -31.75 C 0.65625 -31.9375 1.007812 -32.03125 1.5625 -32.03125 C 1.675781 -32.03125 1.804688 -32.03125 1.953125 -32.03125 C 2.109375 -32.03125 2.257812 -32.007812 2.40625 -31.96875 C 2.925781 -31.894531 3.425781 -31.8125 3.90625 -31.71875 C 4.394531 -31.625 4.882812 -31.539062 5.375 -31.46875 C 6.15625 -31.320312 6.945312 -31.179688 7.75 -31.046875 C 8.550781 -30.921875 9.363281 -30.800781 10.1875 -30.6875 C 10.257812 -30.6875 10.320312 -30.6875 10.375 -30.6875 C 10.4375 -30.6875 10.488281 -30.6875 10.53125 -30.6875 C 10.90625 -30.6875 11.238281 -30.742188 11.53125 -30.859375 C 11.832031 -30.972656 12.113281 -31.066406 12.375 -31.140625 C 12.445312 -31.210938 12.53125 -31.253906 12.625 -31.265625 C 12.71875 -31.285156 12.785156 -31.316406 12.828125 -31.359375 C 13.867188 -31.691406 14.816406 -31.953125 15.671875 -32.140625 C 16.535156 -32.328125 17.34375 -32.421875 18.09375 -32.421875 C 20.363281 -32.421875 22.300781 -31.546875 23.90625 -29.796875 C 24.957031 -28.742188 26.039062 -28.21875 27.15625 -28.21875 C 27.832031 -28.21875 28.441406 -28.367188 28.984375 -28.671875 C 29.523438 -28.972656 30.019531 -29.289062 30.46875 -29.625 C 30.570312 -29.695312 30.671875 -29.769531 30.765625 -29.84375 C 30.859375 -29.914062 30.945312 -29.972656 31.03125 -30.015625 C 33.445312 -31.660156 36.019531 -32.484375 38.75 -32.484375 C 40.613281 -32.484375 42.382812 -32.085938 44.0625 -31.296875 C 45.75 -30.515625 47.207031 -29.359375 48.4375 -27.828125 C 49.257812 -26.816406 49.847656 -25.664062 50.203125 -24.375 C 50.554688 -23.09375 50.78125 -21.734375 50.875 -20.296875 C 50.96875 -18.859375 51.003906 -17.429688 50.984375 -16.015625 C 50.960938 -14.597656 51.007812 -13.273438 51.125 -12.046875 C 51.28125 -10.398438 51.429688 -8.695312 51.578125 -6.9375 C 51.722656 -5.1875 51.476562 -3.507812 50.84375 -1.90625 C 50.582031 -1.269531 50.191406 -0.859375 49.671875 -0.671875 C 49.148438 -0.484375 48.570312 -0.414062 47.9375 -0.46875 C 47.300781 -0.53125 46.644531 -0.539062 45.96875 -0.5 C 45.039062 -0.5 44.359375 -0.546875 43.921875 -0.640625 C 43.492188 -0.734375 43.210938 -0.992188 43.078125 -1.421875 C 42.953125 -1.859375 42.851562 -2.5625 42.78125 -3.53125 C 42.632812 -6.289062 42.578125 -9.070312 42.609375 -11.875 C 42.648438 -14.675781 42.519531 -17.421875 42.21875 -20.109375 C 42.03125 -21.785156 41.460938 -23.097656 40.515625 -24.046875 C 39.566406 -25.003906 38.34375 -25.484375 36.84375 -25.484375 C 36.695312 -25.484375 36.53125 -25.472656 36.34375 -25.453125 C 36.15625 -25.429688 35.96875 -25.40625 35.78125 -25.375 Z M 35.78125 -25.375 "/></g></g></g><g fill="currentColor" fill-opacity="1"><g transform="translate(210.946195, 201.38379)"><g><path d="M 2.125 -35.28125 C 1.300781 -35.800781 0.703125 -36.535156 0.328125 -37.484375 C -0.0351562 -38.441406 -0.0507812 -39.476562 0.28125 -40.59375 C 0.914062 -42.800781 2.410156 -43.941406 4.765625 -44.015625 L 4.875 -44.015625 C 6.03125 -44.015625 7 -43.707031 7.78125 -43.09375 C 8.5625 -42.476562 9.085938 -41.628906 9.359375 -40.546875 C 9.691406 -39.203125 9.554688 -37.96875 8.953125 -36.84375 C 8.359375 -35.726562 7.351562 -35 5.9375 -34.65625 C 5.226562 -34.507812 4.546875 -34.492188 3.890625 -34.609375 C 3.234375 -34.722656 2.644531 -34.945312 2.125 -35.28125 Z M 1.34375 -29.6875 C 1.863281 -30.019531 2.609375 -30.164062 3.578125 -30.125 C 4.140625 -30.125 4.753906 -30.140625 5.421875 -30.171875 C 6.097656 -30.210938 6.722656 -30.148438 7.296875 -29.984375 C 7.878906 -29.816406 8.265625 -29.4375 8.453125 -28.84375 C 8.785156 -27.90625 8.894531 -26.773438 8.78125 -25.453125 C 8.675781 -24.128906 8.625 -22.984375 8.625 -22.015625 C 8.664062 -19.734375 8.6875 -17.472656 8.6875 -15.234375 C 8.6875 -12.992188 8.703125 -10.734375 8.734375 -8.453125 C 8.734375 -8.078125 8.78125 -7.453125 8.875 -6.578125 C 8.96875 -5.703125 9.023438 -4.757812 9.046875 -3.75 C 9.066406 -2.738281 8.960938 -1.878906 8.734375 -1.171875 C 8.515625 -0.460938 8.066406 -0.09375 7.390625 -0.0625 C 6.535156 -0.0195312 5.640625 0.0078125 4.703125 0.03125 C 3.765625 0.0507812 2.867188 0.00390625 2.015625 -0.109375 C 1.421875 -0.179688 1.007812 -0.503906 0.78125 -1.078125 C 0.5625 -1.660156 0.441406 -2.363281 0.421875 -3.1875 C 0.398438 -4.007812 0.425781 -4.789062 0.5 -5.53125 C 0.570312 -6.28125 0.609375 -6.863281 0.609375 -7.28125 C 0.578125 -8.8125 0.550781 -10.347656 0.53125 -11.890625 C 0.507812 -13.441406 0.5 -14.984375 0.5 -16.515625 C 0.46875 -17.828125 0.453125 -19.132812 0.453125 -20.4375 C 0.453125 -21.75 0.429688 -23.035156 0.390625 -24.296875 C 0.390625 -25.378906 0.367188 -26.425781 0.328125 -27.4375 C 0.296875 -28.445312 0.632812 -29.195312 1.34375 -29.6875 Z M 1.34375 -29.6875 "/></g></g></g><g fill="currentColor" fill-opacity="1"><g transform="translate(223.432076, 201.38379)"><g><path d="M 28.609375 -0.28125 C 27.640625 -0.320312 26.660156 -0.332031 25.671875 -0.3125 C 24.679688 -0.289062 23.6875 -0.28125 22.6875 -0.28125 C 22.457031 -0.28125 22.273438 -0.671875 22.140625 -1.453125 C 22.015625 -2.234375 21.929688 -3.257812 21.890625 -4.53125 C 21.859375 -5.800781 21.84375 -7.171875 21.84375 -8.640625 C 21.84375 -10.117188 21.859375 -11.550781 21.890625 -12.9375 C 21.929688 -14.320312 21.960938 -15.515625 21.984375 -16.515625 C 22.003906 -17.523438 22.015625 -18.179688 22.015625 -18.484375 C 21.972656 -20.566406 21.644531 -22.148438 21.03125 -23.234375 C 20.414062 -24.316406 19.648438 -25.0625 18.734375 -25.46875 C 17.816406 -25.882812 16.910156 -26.09375 16.015625 -26.09375 L 15.90625 -26.09375 C 13.78125 -26.09375 12.050781 -25.375 10.71875 -23.9375 C 9.394531 -22.5 8.695312 -20.625 8.625 -18.3125 C 8.582031 -16.820312 8.5625 -15.328125 8.5625 -13.828125 C 8.5625 -12.335938 8.5625 -10.847656 8.5625 -9.359375 C 8.601562 -8.191406 8.707031 -6.910156 8.875 -5.515625 C 9.039062 -4.117188 9.015625 -2.84375 8.796875 -1.6875 C 8.640625 -0.820312 8.289062 -0.359375 7.75 -0.296875 C 7.207031 -0.242188 6.601562 -0.203125 5.9375 -0.171875 C 5.488281 -0.128906 4.898438 -0.078125 4.171875 -0.015625 C 3.441406 0.0351562 2.734375 0.00390625 2.046875 -0.109375 C 1.359375 -0.222656 0.84375 -0.503906 0.5 -0.953125 C 0.09375 -1.546875 -0.0546875 -2.265625 0.046875 -3.109375 C 0.160156 -3.953125 0.238281 -4.6875 0.28125 -5.3125 C 0.425781 -7.375 0.535156 -9.46875 0.609375 -11.59375 C 0.722656 -15.625 0.613281 -19.632812 0.28125 -23.625 C 0.207031 -24.414062 0.148438 -25.332031 0.109375 -26.375 C 0.078125 -27.414062 0.160156 -28.410156 0.359375 -29.359375 C 0.566406 -30.316406 0.976562 -31.066406 1.59375 -31.609375 C 2.207031 -32.148438 3.132812 -32.3125 4.375 -32.09375 C 5.375 -31.90625 6.359375 -31.671875 7.328125 -31.390625 C 8.304688 -31.109375 9.296875 -30.875 10.296875 -30.6875 C 10.378906 -30.6875 10.46875 -30.6875 10.5625 -30.6875 C 10.65625 -30.6875 10.71875 -30.6875 10.75 -30.6875 C 11.457031 -30.6875 12.164062 -30.828125 12.875 -31.109375 C 13.582031 -31.390625 14.3125 -31.675781 15.0625 -31.96875 C 15.8125 -32.269531 16.554688 -32.441406 17.296875 -32.484375 C 19.460938 -32.671875 21.519531 -32.296875 23.46875 -31.359375 C 25.144531 -30.578125 26.441406 -29.550781 27.359375 -28.28125 C 28.273438 -27.007812 28.9375 -25.609375 29.34375 -24.078125 C 29.75 -22.546875 30.007812 -20.957031 30.125 -19.3125 C 30.238281 -17.675781 30.332031 -16.054688 30.40625 -14.453125 C 30.40625 -14.109375 30.441406 -13.414062 30.515625 -12.375 C 30.585938 -11.332031 30.632812 -10.128906 30.65625 -8.765625 C 30.675781 -7.398438 30.648438 -6.070312 30.578125 -4.78125 C 30.503906 -3.5 30.328125 -2.425781 30.046875 -1.5625 C 29.765625 -0.707031 29.34375 -0.28125 28.78125 -0.28125 C 28.75 -0.28125 28.722656 -0.28125 28.703125 -0.28125 C 28.679688 -0.28125 28.648438 -0.28125 28.609375 -0.28125 Z M 28.609375 -0.28125 "/></g></g></g><g fill="currentColor" fill-opacity="1"><g transform="translate(257.027006, 201.38379)"><g><path d="M 32.375 -24.140625 C 32.375 -21.597656 32.390625 -19.035156 32.421875 -16.453125 C 32.460938 -13.878906 32.445312 -11.328125 32.375 -8.796875 C 32.332031 -7.367188 32.3125 -5.890625 32.3125 -4.359375 C 32.3125 -2.835938 32.195312 -1.332031 31.96875 0.15625 C 31.75 1.65625 31.285156 3.0625 30.578125 4.375 C 29.640625 6.082031 28.40625 7.503906 26.875 8.640625 C 25.34375 9.785156 23.65625 10.640625 21.8125 11.203125 C 19.96875 11.765625 18.09375 12.046875 16.1875 12.046875 C 16.03125 12.046875 15.878906 12.046875 15.734375 12.046875 C 15.585938 12.046875 15.4375 12.046875 15.28125 12.046875 C 14.050781 11.960938 12.828125 11.851562 11.609375 11.71875 C 10.398438 11.59375 9.203125 11.34375 8.015625 10.96875 C 7.523438 10.820312 6.941406 10.628906 6.265625 10.390625 C 5.597656 10.148438 4.960938 9.859375 4.359375 9.515625 C 3.765625 9.179688 3.347656 8.757812 3.109375 8.25 C 2.867188 7.75 2.914062 7.144531 3.25 6.4375 C 3.507812 5.914062 3.769531 5.382812 4.03125 4.84375 C 4.289062 4.300781 4.550781 3.769531 4.8125 3.25 C 5.113281 2.6875 5.503906 2.394531 5.984375 2.375 C 6.472656 2.363281 7.015625 2.492188 7.609375 2.765625 C 8.210938 3.046875 8.789062 3.351562 9.34375 3.6875 C 9.90625 4.03125 10.375 4.257812 10.75 4.375 C 11.53125 4.632812 12.34375 4.835938 13.1875 4.984375 C 14.03125 5.128906 14.863281 5.203125 15.6875 5.203125 C 17.738281 5.203125 19.566406 4.671875 21.171875 3.609375 C 22.773438 2.546875 23.929688 1.046875 24.640625 -0.890625 C 24.710938 -1.078125 24.765625 -1.253906 24.796875 -1.421875 C 24.835938 -1.597656 24.84375 -1.757812 24.8125 -1.90625 C 24.769531 -2.539062 24.523438 -2.910156 24.078125 -3.015625 C 23.628906 -3.128906 23.113281 -3.113281 22.53125 -2.96875 C 21.957031 -2.820312 21.398438 -2.625 20.859375 -2.375 C 20.316406 -2.132812 19.894531 -1.976562 19.59375 -1.90625 C 18.738281 -1.644531 17.863281 -1.429688 16.96875 -1.265625 C 16.070312 -1.097656 15.175781 -1.015625 14.28125 -1.015625 C 11.925781 -1.015625 9.835938 -1.609375 8.015625 -2.796875 C 6.515625 -3.765625 5.1875 -4.863281 4.03125 -6.09375 C 2.875 -7.332031 2.035156 -8.53125 1.515625 -9.6875 C 0.0546875 -13.082031 -0.351562 -16.457031 0.28125 -19.8125 C 0.914062 -23.175781 2.539062 -26.109375 5.15625 -28.609375 C 7.769531 -31.148438 10.773438 -32.421875 14.171875 -32.421875 C 16.742188 -32.421875 19.300781 -31.710938 21.84375 -30.296875 C 22.03125 -30.148438 22.269531 -30.078125 22.5625 -30.078125 C 23.007812 -30.078125 23.382812 -30.257812 23.6875 -30.625 C 23.875 -30.851562 24.332031 -31.085938 25.0625 -31.328125 C 25.789062 -31.578125 26.648438 -31.789062 27.640625 -31.96875 C 28.628906 -32.15625 29.570312 -32.25 30.46875 -32.25 C 31.019531 -32.25 31.40625 -32.210938 31.625 -32.140625 C 31.851562 -32.066406 32.046875 -31.769531 32.203125 -31.25 C 32.390625 -30.65625 32.441406 -29.953125 32.359375 -29.140625 C 32.285156 -28.335938 32.269531 -27.617188 32.3125 -26.984375 C 32.3125 -26.503906 32.3125 -26.03125 32.3125 -25.5625 C 32.3125 -25.09375 32.332031 -24.617188 32.375 -24.140625 Z M 22.453125 -10.640625 C 23.984375 -12.472656 24.75 -14.617188 24.75 -17.078125 C 24.75 -18.722656 24.382812 -20.195312 23.65625 -21.5 C 22.925781 -22.8125 21.953125 -23.835938 20.734375 -24.578125 C 19.523438 -25.328125 18.15625 -25.703125 16.625 -25.703125 C 15.582031 -25.660156 14.578125 -25.4375 13.609375 -25.03125 C 12.640625 -24.625 11.78125 -24.023438 11.03125 -23.234375 C 9.28125 -21.441406 8.441406 -19.222656 8.515625 -16.578125 C 8.546875 -15.046875 8.953125 -13.609375 9.734375 -12.265625 C 10.523438 -10.921875 11.523438 -9.835938 12.734375 -9.015625 C 13.953125 -8.191406 15.25 -7.78125 16.625 -7.78125 C 16.625 -7.78125 16.632812 -7.78125 16.65625 -7.78125 C 16.675781 -7.78125 16.6875 -7.78125 16.6875 -7.78125 C 18.925781 -7.78125 20.847656 -8.734375 22.453125 -10.640625 Z M 22.453125 -10.640625 "/></g></g></g><g fill="currentColor" fill-opacity="1"><g transform="translate(115.705551, 251.978743)"><g><path d="M 19.265625 -0.171875 C 18.773438 -0.128906 18.285156 -0.0976562 17.796875 -0.078125 C 17.316406 -0.0664062 16.835938 -0.0625 16.359375 -0.0625 C 13.554688 -0.09375 10.800781 -0.566406 8.09375 -1.484375 C 5.382812 -2.398438 2.984375 -3.8125 0.890625 -5.71875 C 0.742188 -5.863281 0.554688 -6.046875 0.328125 -6.265625 C 0.109375 -6.492188 0.0195312 -6.738281 0.0625 -7 C 0.09375 -7.113281 0.144531 -7.21875 0.21875 -7.3125 C 0.300781 -7.40625 0.359375 -7.488281 0.390625 -7.5625 C 0.804688 -8.007812 1.195312 -8.445312 1.5625 -8.875 C 1.9375 -9.300781 2.3125 -9.738281 2.6875 -10.1875 C 2.988281 -10.53125 3.273438 -10.914062 3.546875 -11.34375 C 3.828125 -11.769531 4.210938 -12.003906 4.703125 -12.046875 C 5.035156 -12.046875 5.351562 -11.953125 5.65625 -11.765625 C 6.851562 -11.234375 8.035156 -10.640625 9.203125 -9.984375 C 10.378906 -9.335938 11.570312 -8.769531 12.78125 -8.28125 C 14 -7.800781 15.242188 -7.550781 16.515625 -7.53125 C 17.785156 -7.507812 19.078125 -7.851562 20.390625 -8.5625 C 20.753906 -8.75 21.101562 -8.984375 21.4375 -9.265625 C 21.78125 -9.546875 22.046875 -9.851562 22.234375 -10.1875 C 22.679688 -11.007812 22.789062 -11.753906 22.5625 -12.421875 C 22.34375 -13.097656 21.925781 -13.707031 21.3125 -14.25 C 20.695312 -14.789062 20.015625 -15.253906 19.265625 -15.640625 C 18.515625 -16.035156 17.859375 -16.347656 17.296875 -16.578125 C 16.066406 -17.097656 14.816406 -17.535156 13.546875 -17.890625 C 12.273438 -18.242188 11.007812 -18.628906 9.75 -19.046875 C 8.507812 -19.453125 7.3125 -19.953125 6.15625 -20.546875 C 5 -21.148438 4.03125 -21.972656 3.25 -23.015625 C 2.207031 -24.359375 1.597656 -25.914062 1.421875 -27.6875 C 1.253906 -29.46875 1.359375 -31.160156 1.734375 -32.765625 C 2.035156 -34.253906 2.640625 -35.566406 3.546875 -36.703125 C 4.460938 -37.847656 5.578125 -38.773438 6.890625 -39.484375 C 9.316406 -40.898438 12.265625 -41.609375 15.734375 -41.609375 C 17.191406 -41.609375 18.640625 -41.476562 20.078125 -41.21875 C 21.515625 -40.957031 22.921875 -40.582031 24.296875 -40.09375 C 25.046875 -39.832031 25.8125 -39.539062 26.59375 -39.21875 C 27.382812 -38.90625 28.054688 -38.535156 28.609375 -38.109375 C 29.171875 -37.679688 29.523438 -37.128906 29.671875 -36.453125 C 29.828125 -35.785156 29.644531 -34.960938 29.125 -33.984375 C 28.96875 -33.617188 28.773438 -33.265625 28.546875 -32.921875 C 28.328125 -32.585938 28.109375 -32.269531 27.890625 -31.96875 C 27.703125 -31.601562 27.476562 -31.34375 27.21875 -31.1875 C 26.769531 -30.894531 26.289062 -30.878906 25.78125 -31.140625 C 25.28125 -31.398438 24.84375 -31.640625 24.46875 -31.859375 C 23.125 -32.722656 21.695312 -33.378906 20.1875 -33.828125 C 18.675781 -34.273438 17.117188 -34.40625 15.515625 -34.21875 C 14.460938 -34.101562 13.488281 -33.773438 12.59375 -33.234375 C 11.695312 -32.691406 11.109375 -32 10.828125 -31.15625 C 10.554688 -30.320312 10.828125 -29.363281 11.640625 -28.28125 C 12.535156 -27.125 13.664062 -26.242188 15.03125 -25.640625 C 16.394531 -25.046875 17.820312 -24.570312 19.3125 -24.21875 C 20.8125 -23.863281 22.195312 -23.425781 23.46875 -22.90625 C 24.4375 -22.53125 25.394531 -22.085938 26.34375 -21.578125 C 27.300781 -21.078125 28.148438 -20.457031 28.890625 -19.71875 C 29.941406 -18.707031 30.679688 -17.472656 31.109375 -16.015625 C 31.535156 -14.554688 31.710938 -13.0625 31.640625 -11.53125 C 31.566406 -10 31.25 -8.582031 30.6875 -7.28125 C 30.050781 -5.789062 29.125 -4.539062 27.90625 -3.53125 C 26.695312 -2.519531 25.34375 -1.742188 23.84375 -1.203125 C 22.351562 -0.660156 20.828125 -0.316406 19.265625 -0.171875 Z M 19.265625 -0.171875 "/></g></g></g><g fill="currentColor" fill-opacity="1"><g transform="translate(150.308339, 251.978743)"><g><path d="M 0.0625 -16.234375 C 0.0195312 -18.328125 0.425781 -20.410156 1.28125 -22.484375 C 2.144531 -24.554688 3.34375 -26.375 4.875 -27.9375 C 6.332031 -29.4375 7.992188 -30.578125 9.859375 -31.359375 C 11.722656 -32.140625 13.644531 -32.53125 15.625 -32.53125 C 15.8125 -32.53125 16.003906 -32.53125 16.203125 -32.53125 C 16.410156 -32.53125 16.609375 -32.53125 16.796875 -32.53125 C 16.796875 -32.53125 16.804688 -32.53125 16.828125 -32.53125 C 16.847656 -32.53125 16.859375 -32.53125 16.859375 -32.53125 C 20.109375 -32.53125 22.972656 -31.859375 25.453125 -30.515625 C 27.929688 -29.171875 29.878906 -27.304688 31.296875 -24.921875 C 32.722656 -22.535156 33.4375 -19.769531 33.4375 -16.625 C 33.4375 -11.738281 31.90625 -7.765625 28.84375 -4.703125 C 27.34375 -3.210938 25.554688 -2.066406 23.484375 -1.265625 C 21.421875 -0.460938 19.175781 -0.0625 16.75 -0.0625 C 14.425781 -0.0625 12.265625 -0.476562 10.265625 -1.3125 C 8.273438 -2.15625 6.523438 -3.3125 5.015625 -4.78125 C 3.503906 -6.257812 2.304688 -7.976562 1.421875 -9.9375 C 0.546875 -11.894531 0.09375 -13.992188 0.0625 -16.234375 Z M 16.578125 -25.875 C 15.265625 -25.875 13.992188 -25.453125 12.765625 -24.609375 C 11.535156 -23.773438 10.519531 -22.691406 9.71875 -21.359375 C 8.914062 -20.035156 8.492188 -18.644531 8.453125 -17.1875 C 8.421875 -15.582031 8.679688 -14.03125 9.234375 -12.53125 C 9.796875 -11.039062 10.65625 -9.789062 11.8125 -8.78125 C 12.96875 -7.78125 14.40625 -7.1875 16.125 -7 C 18.03125 -6.8125 19.632812 -7.109375 20.9375 -7.890625 C 22.25 -8.679688 23.257812 -9.753906 23.96875 -11.109375 C 24.675781 -12.472656 25.066406 -13.96875 25.140625 -15.59375 C 25.210938 -17.21875 24.96875 -18.773438 24.40625 -20.265625 C 23.851562 -21.765625 22.957031 -23.023438 21.71875 -24.046875 C 20.488281 -25.078125 18.925781 -25.6875 17.03125 -25.875 C 16.945312 -25.875 16.867188 -25.875 16.796875 -25.875 C 16.722656 -25.875 16.648438 -25.875 16.578125 -25.875 Z M 16.578125 -25.875 "/></g></g></g><g fill="currentColor" fill-opacity="1"><g transform="translate(186.646887, 251.978743)"><g><path d="M 0.0625 -16.234375 C 0.0195312 -18.328125 0.425781 -20.410156 1.28125 -22.484375 C 2.144531 -24.554688 3.34375 -26.375 4.875 -27.9375 C 6.332031 -29.4375 7.992188 -30.578125 9.859375 -31.359375 C 11.722656 -32.140625 13.644531 -32.53125 15.625 -32.53125 C 15.8125 -32.53125 16.003906 -32.53125 16.203125 -32.53125 C 16.410156 -32.53125 16.609375 -32.53125 16.796875 -32.53125 C 16.796875 -32.53125 16.804688 -32.53125 16.828125 -32.53125 C 16.847656 -32.53125 16.859375 -32.53125 16.859375 -32.53125 C 20.109375 -32.53125 22.972656 -31.859375 25.453125 -30.515625 C 27.929688 -29.171875 29.878906 -27.304688 31.296875 -24.921875 C 32.722656 -22.535156 33.4375 -19.769531 33.4375 -16.625 C 33.4375 -11.738281 31.90625 -7.765625 28.84375 -4.703125 C 27.34375 -3.210938 25.554688 -2.066406 23.484375 -1.265625 C 21.421875 -0.460938 19.175781 -0.0625 16.75 -0.0625 C 14.425781 -0.0625 12.265625 -0.476562 10.265625 -1.3125 C 8.273438 -2.15625 6.523438 -3.3125 5.015625 -4.78125 C 3.503906 -6.257812 2.304688 -7.976562 1.421875 -9.9375 C 0.546875 -11.894531 0.09375 -13.992188 0.0625 -16.234375 Z M 16.578125 -25.875 C 15.265625 -25.875 13.992188 -25.453125 12.765625 -24.609375 C 11.535156 -23.773438 10.519531 -22.691406 9.71875 -21.359375 C 8.914062 -20.035156 8.492188 -18.644531 8.453125 -17.1875 C 8.421875 -15.582031 8.679688 -14.03125 9.234375 -12.53125 C 9.796875 -11.039062 10.65625 -9.789062 11.8125 -8.78125 C 12.96875 -7.78125 14.40625 -7.1875 16.125 -7 C 18.03125 -6.8125 19.632812 -7.109375 20.9375 -7.890625 C 22.25 -8.679688 23.257812 -9.753906 23.96875 -11.109375 C 24.675781 -12.472656 25.066406 -13.96875 25.140625 -15.59375 C 25.210938 -17.21875 24.96875 -18.773438 24.40625 -20.265625 C 23.851562 -21.765625 22.957031 -23.023438 21.71875 -24.046875 C 20.488281 -25.078125 18.925781 -25.6875 17.03125 -25.875 C 16.945312 -25.875 16.867188 -25.875 16.796875 -25.875 C 16.722656 -25.875 16.648438 -25.875 16.578125 -25.875 Z M 16.578125 -25.875 "/></g></g></g><g fill="currentColor" fill-opacity="1"><g transform="translate(222.985436, 251.978743)"><g><path d="M 28.609375 -0.28125 C 27.640625 -0.320312 26.660156 -0.332031 25.671875 -0.3125 C 24.679688 -0.289062 23.6875 -0.28125 22.6875 -0.28125 C 22.457031 -0.28125 22.273438 -0.671875 22.140625 -1.453125 C 22.015625 -2.234375 21.929688 -3.257812 21.890625 -4.53125 C 21.859375 -5.800781 21.84375 -7.171875 21.84375 -8.640625 C 21.84375 -10.117188 21.859375 -11.550781 21.890625 -12.9375 C 21.929688 -14.320312 21.960938 -15.515625 21.984375 -16.515625 C 22.003906 -17.523438 22.015625 -18.179688 22.015625 -18.484375 C 21.972656 -20.566406 21.644531 -22.148438 21.03125 -23.234375 C 20.414062 -24.316406 19.648438 -25.0625 18.734375 -25.46875 C 17.816406 -25.882812 16.910156 -26.09375 16.015625 -26.09375 L 15.90625 -26.09375 C 13.78125 -26.09375 12.050781 -25.375 10.71875 -23.9375 C 9.394531 -22.5 8.695312 -20.625 8.625 -18.3125 C 8.582031 -16.820312 8.5625 -15.328125 8.5625 -13.828125 C 8.5625 -12.335938 8.5625 -10.847656 8.5625 -9.359375 C 8.601562 -8.191406 8.707031 -6.910156 8.875 -5.515625 C 9.039062 -4.117188 9.015625 -2.84375 8.796875 -1.6875 C 8.640625 -0.820312 8.289062 -0.359375 7.75 -0.296875 C 7.207031 -0.242188 6.601562 -0.203125 5.9375 -0.171875 C 5.488281 -0.128906 4.898438 -0.078125 4.171875 -0.015625 C 3.441406 0.0351562 2.734375 0.00390625 2.046875 -0.109375 C 1.359375 -0.222656 0.84375 -0.503906 0.5 -0.953125 C 0.09375 -1.546875 -0.0546875 -2.265625 0.046875 -3.109375 C 0.160156 -3.953125 0.238281 -4.6875 0.28125 -5.3125 C 0.425781 -7.375 0.535156 -9.46875 0.609375 -11.59375 C 0.722656 -15.625 0.613281 -19.632812 0.28125 -23.625 C 0.207031 -24.414062 0.148438 -25.332031 0.109375 -26.375 C 0.078125 -27.414062 0.160156 -28.410156 0.359375 -29.359375 C 0.566406 -30.316406 0.976562 -31.066406 1.59375 -31.609375 C 2.207031 -32.148438 3.132812 -32.3125 4.375 -32.09375 C 5.375 -31.90625 6.359375 -31.671875 7.328125 -31.390625 C 8.304688 -31.109375 9.296875 -30.875 10.296875 -30.6875 C 10.378906 -30.6875 10.46875 -30.6875 10.5625 -30.6875 C 10.65625 -30.6875 10.71875 -30.6875 10.75 -30.6875 C 11.457031 -30.6875 12.164062 -30.828125 12.875 -31.109375 C 13.582031 -31.390625 14.3125 -31.675781 15.0625 -31.96875 C 15.8125 -32.269531 16.554688 -32.441406 17.296875 -32.484375 C 19.460938 -32.671875 21.519531 -32.296875 23.46875 -31.359375 C 25.144531 -30.578125 26.441406 -29.550781 27.359375 -28.28125 C 28.273438 -27.007812 28.9375 -25.609375 29.34375 -24.078125 C 29.75 -22.546875 30.007812 -20.957031 30.125 -19.3125 C 30.238281 -17.675781 30.332031 -16.054688 30.40625 -14.453125 C 30.40625 -14.109375 30.441406 -13.414062 30.515625 -12.375 C 30.585938 -11.332031 30.632812 -10.128906 30.65625 -8.765625 C 30.675781 -7.398438 30.648438 -6.070312 30.578125 -4.78125 C 30.503906 -3.5 30.328125 -2.425781 30.046875 -1.5625 C 29.765625 -0.707031 29.34375 -0.28125 28.78125 -0.28125 C 28.75 -0.28125 28.722656 -0.28125 28.703125 -0.28125 C 28.679688 -0.28125 28.648438 -0.28125 28.609375 -0.28125 Z M 28.609375 -0.28125 "/></g></g></g></svg>