<svg xmlns="http://www.w3.org/2000/svg" width="128" height="23" viewBox="0 0 128 23" fill="none">
<path id="Vector" d="M6.05254 7.81C10.256 6.8495 14.4598 9.4315 15.42 13.5498C15.5148 13.986 15.5758 14.439 15.6033 14.894L15.612 15.0647L13.222 15.5983L11.9845 15.8757L4.32404 17.604C5.28429 18.9695 7.03404 19.674 8.76254 19.2897C9.77629 19.0622 10.67 18.4732 11.2678 17.64L11.3228 17.5613L14.9503 18.4147C13.969 20.5272 12.0485 22.1917 9.57329 22.7465C5.36979 23.7065 1.18729 21.146 0.205789 17.0065C-0.775711 12.867 1.84879 8.77025 6.05254 7.81ZM118.441 7.83075C122.644 6.87075 126.848 9.4525 127.808 13.5708C127.903 14.007 127.964 14.4602 127.991 14.9152L128 15.0857L125.61 15.6193L124.373 15.8968L116.712 17.625C117.672 18.9907 119.422 19.695 121.151 19.3107C122.164 19.0832 123.058 18.4945 123.656 17.6612L123.711 17.5825L127.339 18.4145C126.357 20.527 124.437 22.1915 121.961 22.7463C117.758 23.7063 113.554 21.1245 112.594 17.0063C111.612 12.888 114.237 8.79125 118.441 7.83075ZM35.4138 7.83075C39.6173 6.87075 43.7998 9.4525 44.7813 13.5708C44.8763 14.007 44.9373 14.4602 44.9645 14.9152L44.9733 15.0857L42.5833 15.6193L41.3458 15.8968L33.6853 17.625C34.1759 18.313 34.8593 18.8402 35.6492 19.1402C36.4391 19.4402 37.3002 19.4996 38.1238 19.3107C39.1693 19.076 40.0868 18.4573 40.6843 17.5825L43.2488 18.1612C43.8463 18.298 44.3118 18.407 44.3118 18.4145C43.3303 20.527 41.4098 22.1915 38.9345 22.7463C34.731 23.7063 30.5273 21.1245 29.567 17.0063C28.5855 12.888 31.2103 8.79125 35.4138 7.83075ZM75.2308 0V8.962C76.4258 8.002 77.834 7.5965 79.3918 7.5965C83.7873 7.5965 87.3083 10.989 87.3083 15.2355C87.3083 19.4605 83.7873 22.9172 79.3918 22.9172C77.8553 22.9172 76.4258 22.5118 75.2308 21.5515V22.5117H71.3685V0.87475L75.2308 0ZM92.3653 7.8525V9.154C93.5353 8.31825 94.6645 8.0145 96.574 7.902L96.697 7.895V11.6508C92.9578 11.7775 92.3768 13.0333 92.3655 15.2533V22.5117H88.503V7.8525H92.3653ZM67.1435 1.835V7.8525H70.1523V11.5013H67.1435V22.5117H63.132V11.5013H60.7635V7.8525H63.132V2.73125L67.1435 1.835ZM53.8285 7.575C57.0935 7.575 59.9313 9.45275 59.9313 14.0405V22.4905H56.0478V14.6805C56.0478 11.9025 54.5753 11.251 53.072 11.2247L52.975 11.2238L52.878 11.2247C51.3748 11.249 49.9023 11.8592 49.9023 14.6167V22.5117H46.0403V7.8525H49.9023V8.94075L50.189 8.73475C50.9915 8.16775 52.0035 7.575 53.8285 7.575ZM18.642 7.8525L22.44 17.796L26.2808 7.8525H30.4845L24.467 22.5117H20.4558L14.4383 7.8525H18.642ZM101.904 7.8525V22.5117H98.041V7.8525H101.904ZM109.692 2.73125V7.8525H112.701V11.565H109.692V22.49H105.68V11.5868H103.312V7.8525H105.68V2.73125H109.692ZM79.3703 11.1175C77.0873 11.1175 75.2308 12.9312 75.1453 15.0437V15.4062C75.252 17.5403 77.1085 19.3325 79.3703 19.3325C81.6748 19.3325 83.574 17.455 83.574 15.2142C83.574 13.0167 81.6748 11.1175 79.3703 11.1175ZM116.029 14.617L123.668 12.8885C122.666 11.5015 120.916 10.84 119.251 11.224C117.551 11.602 116.346 12.9507 116.044 14.5385L116.029 14.617ZM33.0025 14.617L40.6415 12.8885C39.6815 11.5443 37.953 10.84 36.2245 11.224C34.5238 11.602 33.298 12.9515 33.0155 14.5398L33.0025 14.617ZM3.64129 14.617L11.2803 12.8885C10.3203 11.5443 8.59179 10.84 6.86329 11.224C5.16229 11.602 3.93679 12.9307 3.65429 14.539L3.64129 14.617ZM99.983 0.3415C101.37 0.3415 102.394 1.36575 102.394 2.71C102.394 4.0755 101.349 5.12125 99.983 5.12125C98.596 5.12125 97.529 4.0755 97.529 2.71C97.529 1.34425 98.596 0.3415 99.983 0.3415Z" fill="currentColor"/>
</svg>