<svg xmlns="http://www.w3.org/2000/svg" xmlns:xlink="http://www.w3.org/1999/xlink" width="500" zoomAndPan="magnify" viewBox="0 0 375 374.999991" height="500" preserveAspectRatio="xMidYMid meet" version="1.0"><defs><g/><clipPath id="2b36f62e97"><rect x="0" width="153" y="0" height="75"/></clipPath></defs><g transform="matrix(1, 0, 0, 1, 108, 153)"><g clip-path="url(#2b36f62e97)"><g fill="currentColor" fill-opacity="1"><g transform="translate(1.146321, 58.862467)"><g><path d="M 25.140625 -1.90625 C 22.460938 -0.632812 19.757812 0 17.03125 0 C 15.46875 0 13.75 -0.21875 11.875 -0.65625 C 10 -1.09375 8.171875 -1.648438 6.390625 -2.328125 C 4.617188 -3.015625 3.050781 -3.75 1.6875 -4.53125 C 0.65625 -5.113281 0.113281 -5.707031 0.0625 -6.3125 C 0.0195312 -6.925781 0.242188 -7.5625 0.734375 -8.21875 C 1.222656 -8.875 1.6875 -9.59375 2.125 -10.375 C 2.269531 -10.625 2.425781 -10.859375 2.59375 -11.078125 C 2.757812 -11.296875 2.941406 -11.476562 3.140625 -11.625 C 3.679688 -12.007812 4.242188 -12.128906 4.828125 -11.984375 C 5.410156 -11.835938 5.976562 -11.59375 6.53125 -11.25 C 7.09375 -10.914062 7.597656 -10.625 8.046875 -10.375 C 9.554688 -9.550781 11.210938 -8.941406 13.015625 -8.546875 C 14.816406 -8.160156 16.566406 -8.015625 18.265625 -8.109375 C 19.535156 -8.210938 20.707031 -8.492188 21.78125 -8.953125 C 22.851562 -9.410156 23.484375 -10.054688 23.671875 -10.890625 C 23.867188 -11.722656 23.285156 -12.695312 21.921875 -13.8125 C 20.117188 -15.226562 18.207031 -16.398438 16.1875 -17.328125 C 14.164062 -18.253906 12.082031 -19.054688 9.9375 -19.734375 C 7.9375 -20.367188 6.328125 -21.316406 5.109375 -22.578125 C 3.898438 -23.847656 3.035156 -25.265625 2.515625 -26.828125 C 2.003906 -28.390625 1.847656 -29.898438 2.046875 -31.359375 C 2.285156 -32.921875 2.890625 -34.40625 3.859375 -35.8125 C 4.835938 -37.226562 6.054688 -38.472656 7.515625 -39.546875 C 8.984375 -40.617188 10.570312 -41.347656 12.28125 -41.734375 C 13.25 -41.984375 14.195312 -42.164062 15.125 -42.28125 C 16.050781 -42.40625 16.976562 -42.46875 17.90625 -42.46875 C 19.664062 -42.46875 21.394531 -42.257812 23.09375 -41.84375 C 24.800781 -41.425781 26.4375 -40.851562 28 -40.125 C 29.40625 -39.488281 30.410156 -38.890625 31.015625 -38.328125 C 31.628906 -37.773438 31.851562 -37.109375 31.6875 -36.328125 C 31.519531 -35.546875 30.945312 -34.445312 29.96875 -33.03125 C 29.238281 -31.96875 28.410156 -31.375 27.484375 -31.25 C 26.554688 -31.125 25.554688 -31.253906 24.484375 -31.640625 C 23.410156 -32.035156 22.328125 -32.515625 21.234375 -33.078125 C 20.140625 -33.640625 19.066406 -34.113281 18.015625 -34.5 C 16.972656 -34.882812 16.007812 -35.003906 15.125 -34.859375 C 14.25 -34.710938 13.472656 -34.101562 12.796875 -33.03125 C 12.160156 -31.96875 11.972656 -31.03125 12.234375 -30.21875 C 12.503906 -29.414062 13.050781 -28.722656 13.875 -28.140625 C 14.707031 -27.554688 15.671875 -27.066406 16.765625 -26.671875 C 17.867188 -26.285156 18.929688 -25.945312 19.953125 -25.65625 C 20.972656 -25.363281 21.800781 -25.097656 22.4375 -24.859375 C 24.289062 -24.171875 26.09375 -23.335938 27.84375 -22.359375 C 29.601562 -21.390625 31.019531 -20.023438 32.09375 -18.265625 C 33.550781 -15.835938 34.070312 -13.5625 33.65625 -11.4375 C 33.238281 -9.320312 32.25 -7.445312 30.6875 -5.8125 C 29.132812 -4.175781 27.285156 -2.875 25.140625 -1.90625 Z M 25.140625 -1.90625 "/></g></g></g><g fill="currentColor" fill-opacity="1"><g transform="translate(35.057061, 58.862467)"><g><path d="M 41 -18.5625 C 40.414062 -18.070312 39.550781 -17.742188 38.40625 -17.578125 C 37.257812 -17.410156 36.039062 -17.328125 34.75 -17.328125 C 33.457031 -17.328125 32.25 -17.347656 31.125 -17.390625 C 30.007812 -17.441406 29.160156 -17.46875 28.578125 -17.46875 C 26.046875 -17.414062 23.535156 -17.378906 21.046875 -17.359375 C 18.566406 -17.335938 16.054688 -17.328125 13.515625 -17.328125 C 12.742188 -17.328125 12.242188 -17.082031 12.015625 -16.59375 C 11.796875 -16.101562 11.769531 -15.550781 11.9375 -14.9375 C 12.113281 -14.332031 12.347656 -13.8125 12.640625 -13.375 C 13.671875 -12.0625 14.953125 -11 16.484375 -10.1875 C 18.015625 -9.382812 19.609375 -8.890625 21.265625 -8.703125 C 23.117188 -8.503906 24.664062 -8.757812 25.90625 -9.46875 C 27.15625 -10.175781 28.554688 -10.914062 30.109375 -11.6875 C 30.847656 -12.082031 31.347656 -12.328125 31.609375 -12.421875 C 31.878906 -12.523438 32.332031 -12.304688 32.96875 -11.765625 C 33.644531 -11.234375 34.285156 -10.503906 34.890625 -9.578125 C 35.503906 -8.648438 36.101562 -7.84375 36.6875 -7.15625 C 37.320312 -6.332031 37.296875 -5.554688 36.609375 -4.828125 C 35.929688 -4.097656 34.882812 -3.425781 33.46875 -2.8125 C 32.0625 -2.207031 30.53125 -1.679688 28.875 -1.234375 C 27.21875 -0.796875 25.71875 -0.457031 24.375 -0.21875 C 23.03125 0.0195312 22.117188 0.140625 21.640625 0.140625 C 18.367188 0.140625 15.359375 -0.503906 12.609375 -1.796875 C 9.859375 -3.085938 7.503906 -4.835938 5.546875 -7.046875 C 3.597656 -9.265625 2.132812 -11.765625 1.15625 -14.546875 C 0.1875 -17.328125 -0.1875 -20.238281 0.03125 -23.28125 C 0.25 -26.320312 1.1875 -29.28125 2.84375 -32.15625 C 4.113281 -34.40625 5.804688 -36.304688 7.921875 -37.859375 C 10.046875 -39.421875 12.382812 -40.578125 14.9375 -41.328125 C 17.5 -42.085938 20.117188 -42.429688 22.796875 -42.359375 C 25.484375 -42.285156 28.03125 -41.75 30.4375 -40.75 C 32.851562 -39.75 34.960938 -38.25 36.765625 -36.25 C 37.597656 -35.320312 38.390625 -34.164062 39.140625 -32.78125 C 39.898438 -31.394531 40.546875 -29.894531 41.078125 -28.28125 C 41.609375 -26.675781 41.9375 -25.101562 42.0625 -23.5625 C 42.1875 -22.03125 42.03125 -20.632812 41.59375 -19.375 C 41.488281 -19.082031 41.289062 -18.8125 41 -18.5625 Z M 29.96875 -26.171875 C 30.113281 -26.503906 30.160156 -26.867188 30.109375 -27.265625 C 30.066406 -27.847656 29.800781 -28.40625 29.3125 -28.9375 C 28 -30.789062 26.289062 -32.15625 24.1875 -33.03125 C 22.09375 -33.914062 19.953125 -33.867188 17.765625 -32.890625 C 16.785156 -32.453125 15.867188 -31.890625 15.015625 -31.203125 C 14.160156 -30.523438 13.367188 -29.796875 12.640625 -29.015625 C 12.453125 -28.816406 12.257812 -28.597656 12.0625 -28.359375 C 11.863281 -28.117188 11.71875 -27.851562 11.625 -27.5625 C 11.425781 -26.96875 11.519531 -26.425781 11.90625 -25.9375 C 12.300781 -25.457031 12.789062 -25.21875 13.375 -25.21875 L 28.28125 -25.21875 C 29.113281 -25.21875 29.675781 -25.535156 29.96875 -26.171875 Z M 29.96875 -26.171875 "/></g></g></g><g fill="currentColor" fill-opacity="1"><g transform="translate(77.29956, 58.862467)"><g><path d="M 25.140625 -1.90625 C 22.460938 -0.632812 19.757812 0 17.03125 0 C 15.46875 0 13.75 -0.21875 11.875 -0.65625 C 10 -1.09375 8.171875 -1.648438 6.390625 -2.328125 C 4.617188 -3.015625 3.050781 -3.75 1.6875 -4.53125 C 0.65625 -5.113281 0.113281 -5.707031 0.0625 -6.3125 C 0.0195312 -6.925781 0.242188 -7.5625 0.734375 -8.21875 C 1.222656 -8.875 1.6875 -9.59375 2.125 -10.375 C 2.269531 -10.625 2.425781 -10.859375 2.59375 -11.078125 C 2.757812 -11.296875 2.941406 -11.476562 3.140625 -11.625 C 3.679688 -12.007812 4.242188 -12.128906 4.828125 -11.984375 C 5.410156 -11.835938 5.976562 -11.59375 6.53125 -11.25 C 7.09375 -10.914062 7.597656 -10.625 8.046875 -10.375 C 9.554688 -9.550781 11.210938 -8.941406 13.015625 -8.546875 C 14.816406 -8.160156 16.566406 -8.015625 18.265625 -8.109375 C 19.535156 -8.210938 20.707031 -8.492188 21.78125 -8.953125 C 22.851562 -9.410156 23.484375 -10.054688 23.671875 -10.890625 C 23.867188 -11.722656 23.285156 -12.695312 21.921875 -13.8125 C 20.117188 -15.226562 18.207031 -16.398438 16.1875 -17.328125 C 14.164062 -18.253906 12.082031 -19.054688 9.9375 -19.734375 C 7.9375 -20.367188 6.328125 -21.316406 5.109375 -22.578125 C 3.898438 -23.847656 3.035156 -25.265625 2.515625 -26.828125 C 2.003906 -28.390625 1.847656 -29.898438 2.046875 -31.359375 C 2.285156 -32.921875 2.890625 -34.40625 3.859375 -35.8125 C 4.835938 -37.226562 6.054688 -38.472656 7.515625 -39.546875 C 8.984375 -40.617188 10.570312 -41.347656 12.28125 -41.734375 C 13.25 -41.984375 14.195312 -42.164062 15.125 -42.28125 C 16.050781 -42.40625 16.976562 -42.46875 17.90625 -42.46875 C 19.664062 -42.46875 21.394531 -42.257812 23.09375 -41.84375 C 24.800781 -41.425781 26.4375 -40.851562 28 -40.125 C 29.40625 -39.488281 30.410156 -38.890625 31.015625 -38.328125 C 31.628906 -37.773438 31.851562 -37.109375 31.6875 -36.328125 C 31.519531 -35.546875 30.945312 -34.445312 29.96875 -33.03125 C 29.238281 -31.96875 28.410156 -31.375 27.484375 -31.25 C 26.554688 -31.125 25.554688 -31.253906 24.484375 -31.640625 C 23.410156 -32.035156 22.328125 -32.515625 21.234375 -33.078125 C 20.140625 -33.640625 19.066406 -34.113281 18.015625 -34.5 C 16.972656 -34.882812 16.007812 -35.003906 15.125 -34.859375 C 14.25 -34.710938 13.472656 -34.101562 12.796875 -33.03125 C 12.160156 -31.96875 11.972656 -31.03125 12.234375 -30.21875 C 12.503906 -29.414062 13.050781 -28.722656 13.875 -28.140625 C 14.707031 -27.554688 15.671875 -27.066406 16.765625 -26.671875 C 17.867188 -26.285156 18.929688 -25.945312 19.953125 -25.65625 C 20.972656 -25.363281 21.800781 -25.097656 22.4375 -24.859375 C 24.289062 -24.171875 26.09375 -23.335938 27.84375 -22.359375 C 29.601562 -21.390625 31.019531 -20.023438 32.09375 -18.265625 C 33.550781 -15.835938 34.070312 -13.5625 33.65625 -11.4375 C 33.238281 -9.320312 32.25 -7.445312 30.6875 -5.8125 C 29.132812 -4.175781 27.285156 -2.875 25.140625 -1.90625 Z M 25.140625 -1.90625 "/></g></g></g><g fill="currentColor" fill-opacity="1"><g transform="translate(111.210301, 58.862467)"><g><path d="M 38.671875 -26.453125 C 38.960938 -24.023438 39.09375 -21.566406 39.0625 -19.078125 C 39.039062 -16.585938 39.03125 -14.296875 39.03125 -12.203125 C 39.03125 -11.710938 39.078125 -10.847656 39.171875 -9.609375 C 39.273438 -8.367188 39.328125 -7.066406 39.328125 -5.703125 C 39.328125 -4.335938 39.21875 -3.15625 39 -2.15625 C 38.78125 -1.15625 38.378906 -0.609375 37.796875 -0.515625 C 37.015625 -0.410156 36 -0.257812 34.75 -0.0625 C 33.507812 0.125 32.316406 0.164062 31.171875 0.0625 C 30.023438 -0.03125 29.160156 -0.441406 28.578125 -1.171875 C 27.898438 -2.046875 27.632812 -3.148438 27.78125 -4.484375 C 27.925781 -5.828125 27.972656 -6.988281 27.921875 -7.96875 C 27.921875 -10.695312 27.90625 -13.398438 27.875 -16.078125 C 27.851562 -18.753906 27.867188 -21.4375 27.921875 -24.125 C 27.921875 -26.65625 27.3125 -28.675781 26.09375 -30.1875 C 24.875 -31.695312 23.117188 -32.597656 20.828125 -32.890625 C 20.679688 -32.941406 20.535156 -32.96875 20.390625 -32.96875 C 20.242188 -32.96875 20.097656 -32.96875 19.953125 -32.96875 C 18.535156 -32.96875 17.207031 -32.585938 15.96875 -31.828125 C 14.726562 -31.078125 13.703125 -30.078125 12.890625 -28.828125 C 12.085938 -27.585938 11.613281 -26.210938 11.46875 -24.703125 C 11.320312 -22.898438 11.238281 -21.109375 11.21875 -19.328125 C 11.195312 -17.554688 11.207031 -15.789062 11.25 -14.03125 C 11.25 -12.082031 11.238281 -10.109375 11.21875 -8.109375 C 11.195312 -6.109375 11.1875 -4.113281 11.1875 -2.125 C 11.1875 -1.382812 10.804688 -0.867188 10.046875 -0.578125 C 9.296875 -0.285156 8.367188 -0.140625 7.265625 -0.140625 C 6.171875 -0.140625 5.125 -0.1875 4.125 -0.28125 C 3.125 -0.382812 2.359375 -0.4375 1.828125 -0.4375 C 1.097656 -0.4375 0.597656 -0.789062 0.328125 -1.5 C 0.0546875 -2.207031 -0.0507812 -3.046875 0 -4.015625 C 0.0507812 -4.992188 0.132812 -5.929688 0.25 -6.828125 C 0.375 -7.734375 0.4375 -8.429688 0.4375 -8.921875 C 0.488281 -10.328125 0.523438 -11.738281 0.546875 -13.15625 C 0.566406 -14.570312 0.578125 -15.984375 0.578125 -17.390625 C 0.578125 -23.484375 0.515625 -29.578125 0.390625 -35.671875 C 0.273438 -41.765625 0.21875 -47.832031 0.21875 -53.875 C 0.21875 -54.65625 0.3125 -55.375 0.5 -56.03125 C 0.695312 -56.6875 1.238281 -57.113281 2.125 -57.3125 C 3.195312 -57.550781 4.316406 -57.609375 5.484375 -57.484375 C 6.648438 -57.367188 7.769531 -57.285156 8.84375 -57.234375 C 10.15625 -57.179688 11.03125 -56.71875 11.46875 -55.84375 C 11.914062 -54.96875 12.101562 -53.882812 12.03125 -52.59375 C 11.957031 -51.300781 11.796875 -50.03125 11.546875 -48.78125 C 11.304688 -47.539062 11.1875 -46.53125 11.1875 -45.75 L 11.1875 -42.03125 C 11.1875 -41.488281 11.40625 -41.023438 11.84375 -40.640625 C 12.132812 -40.347656 12.546875 -40.203125 13.078125 -40.203125 C 13.128906 -40.203125 13.164062 -40.203125 13.1875 -40.203125 C 13.21875 -40.203125 13.253906 -40.203125 13.296875 -40.203125 C 14.078125 -40.296875 14.820312 -40.40625 15.53125 -40.53125 C 16.238281 -40.65625 16.910156 -40.765625 17.546875 -40.859375 C 18.804688 -41.097656 20.019531 -41.289062 21.1875 -41.4375 C 22.363281 -41.582031 23.488281 -41.65625 24.5625 -41.65625 C 27.875 -41.65625 30.488281 -40.945312 32.40625 -39.53125 C 34.332031 -38.125 35.769531 -36.265625 36.71875 -33.953125 C 37.675781 -31.640625 38.328125 -29.140625 38.671875 -26.453125 Z M 38.671875 -26.453125 "/></g></g></g></g></g></svg>



