<svg width="67" height="33" viewBox="0 0 67 33" fill="none" xmlns="http://www.w3.org/2000/svg">
<mask id="mask0_115_682" style="mask-type:luminance" maskUnits="userSpaceOnUse" x="0" y="0" width="67" height="33">
<path d="M67 0H0V32.8431H67V0Z" fill="white"/>
</mask>
<g mask="url(#mask0_115_682)">
<path d="M11.5107 24.9414C10.3372 25.499 9.15352 25.7761 7.95953 25.7761C7.2753 25.7761 6.52264 25.6803 5.70157 25.4888C4.88049 25.2972 4.07994 25.0543 3.29991 24.7566C2.52331 24.4556 1.83737 24.134 1.24037 23.7919C0.788779 23.537 0.551009 23.277 0.528771 23.0118C0.509955 22.7433 0.607458 22.4645 0.822991 22.1771C1.03681 21.8897 1.24037 21.575 1.43196 21.2328C1.49525 21.1234 1.56367 21.0207 1.63723 20.9249C1.70907 20.8291 1.78947 20.7505 1.87671 20.6855C2.11277 20.5178 2.35909 20.4648 2.61568 20.5281C2.87056 20.5931 3.11859 20.6991 3.36149 20.8497C3.60782 20.9968 3.82848 21.1234 4.0252 21.2328C4.68548 21.5938 5.41077 21.8606 6.20106 22.0334C6.98963 22.2027 7.75597 22.266 8.50007 22.225C9.05601 22.1805 9.56919 22.0573 10.0396 21.8555C10.5083 21.6554 10.7854 21.3731 10.8675 21.007C10.953 20.6427 10.6982 20.2168 10.1012 19.7275C9.31089 19.1083 8.47442 18.5951 7.59005 18.188C6.70397 17.7826 5.79223 17.4319 4.85312 17.1343C3.9773 16.8572 3.27254 16.4415 2.73884 15.889C2.20856 15.333 1.83052 14.7121 1.60302 14.0279C1.37893 13.3436 1.31051 12.6834 1.39775 12.0436C1.50209 11.3594 1.76723 10.7093 2.19146 10.0935C2.6191 9.47431 3.1528 8.92863 3.79256 8.45822C4.43574 7.98953 5.13023 7.66965 5.87947 7.5003C6.30369 7.39082 6.71765 7.31214 7.12477 7.26082C7.53018 7.20608 7.93558 7.17871 8.3427 7.17871C9.11246 7.17871 9.87025 7.27108 10.6144 7.4524C11.3619 7.63544 12.0786 7.88689 12.7628 8.20506C13.3786 8.48388 13.8183 8.7456 14.0834 8.99193C14.352 9.23483 14.4495 9.52563 14.3776 9.86774C14.3041 10.2099 14.0526 10.6922 13.625 11.3115C13.3051 11.7768 12.9425 12.0368 12.537 12.0915C12.1299 12.1462 11.692 12.0898 11.2233 11.9204C10.7529 11.7477 10.2791 11.5373 9.80012 11.2909C9.32115 11.0446 8.85074 10.8376 8.3906 10.6683C7.93387 10.5007 7.51136 10.4476 7.12477 10.5109C6.7416 10.5759 6.40119 10.8428 6.10526 11.3115C5.82644 11.7768 5.74433 12.1873 5.85894 12.5431C5.97697 12.8955 6.21645 13.1982 6.57738 13.4531C6.94174 13.7097 7.36425 13.9235 7.84321 14.0963C8.3256 14.2656 8.79087 14.4145 9.23905 14.541C9.68551 14.6693 10.0482 14.7857 10.327 14.89C11.1378 15.1911 11.9281 15.5571 12.6944 15.9848C13.4642 16.409 14.0851 17.0077 14.5555 17.7775C15.1936 18.8414 15.4211 19.837 15.2398 20.7676C15.0567 21.6947 14.624 22.5158 13.9397 23.2308C13.2589 23.9475 12.4498 24.5172 11.5107 24.9414Z" fill="black"/>
<path d="M33.3066 17.6479C33.05 17.8635 32.672 18.0071 32.1708 18.079C31.6679 18.1525 31.1342 18.1885 30.5697 18.1885C30.0035 18.1885 29.4749 18.1799 28.9823 18.1611C28.4931 18.1389 28.1219 18.1269 27.867 18.1269C26.7585 18.1508 25.6586 18.1662 24.569 18.1748C23.4828 18.185 22.3829 18.1885 21.271 18.1885C20.9323 18.1885 20.7133 18.2962 20.6141 18.5101C20.5183 18.7256 20.5064 18.9668 20.5799 19.2353C20.6569 19.5005 20.7595 19.728 20.8878 19.9196C21.3394 20.4943 21.9005 20.9596 22.571 21.3154C23.2416 21.6678 23.9395 21.8833 24.6648 21.9654C25.4756 22.0527 26.153 21.9415 26.697 21.6302C27.2443 21.3205 27.8567 20.9972 28.5375 20.6585C28.8608 20.4858 29.0798 20.378 29.1944 20.337C29.3124 20.2925 29.5109 20.3883 29.7897 20.6243C30.0856 20.857 30.3661 21.1768 30.6313 21.5823C30.8998 21.9894 31.1616 22.3418 31.4182 22.6428C31.6953 23.0037 31.685 23.3442 31.3839 23.6623C31.0863 23.9822 30.6279 24.2764 30.0086 24.545C29.3928 24.8101 28.7223 25.041 27.997 25.2361C27.2717 25.4276 26.6148 25.5765 26.0264 25.6808C25.438 25.7852 25.0377 25.8382 24.829 25.8382C23.3955 25.8382 22.0784 25.5559 20.8741 24.9897C19.6699 24.4252 18.6384 23.6589 17.7814 22.6907C16.9278 21.7191 16.2864 20.6243 15.8587 19.4064C15.4345 18.1885 15.2703 16.9141 15.3661 15.5815C15.4619 14.2507 15.8724 12.9541 16.5977 11.6951C17.1536 10.7098 17.8943 9.87846 18.8214 9.19765C19.752 8.51342 20.7749 8.00709 21.8936 7.67866C23.0158 7.34681 24.1619 7.19628 25.3353 7.22707C26.5122 7.25957 27.6275 7.49392 28.6812 7.93182C29.7384 8.36973 30.6621 9.0266 31.4524 9.90241C31.8167 10.3095 32.164 10.8159 32.4924 11.4214C32.8242 12.0287 33.1082 12.6855 33.3408 13.392C33.5735 14.095 33.7172 14.7844 33.7719 15.4584C33.8266 16.1289 33.7582 16.7413 33.5666 17.2921C33.5205 17.4204 33.4332 17.5384 33.3066 17.6479ZM28.476 14.3157C28.5392 14.1703 28.5598 14.0112 28.5375 13.8367C28.5187 13.5819 28.4024 13.3373 28.1886 13.1046C27.6138 12.2938 26.8646 11.6951 25.9443 11.3119C25.0274 10.9253 24.09 10.9459 23.1321 11.3735C22.7027 11.5651 22.3008 11.8114 21.9279 12.1125C21.5532 12.4101 21.206 12.7283 20.8878 13.0704C20.8057 13.1576 20.7202 13.2534 20.6347 13.3578C20.5474 13.4638 20.4841 13.5802 20.4431 13.7067C20.3558 13.9668 20.3969 14.2045 20.5662 14.4183C20.739 14.6287 20.9528 14.7331 21.2094 14.7331H27.737C28.1013 14.7331 28.3477 14.5945 28.476 14.3157Z" fill="black"/>
<path d="M44.859 24.9414C43.6855 25.499 42.5018 25.7761 41.3078 25.7761C40.6236 25.7761 39.8709 25.6803 39.0498 25.4888C38.2288 25.2972 37.4282 25.0543 36.6482 24.7566C35.8716 24.4556 35.1856 24.134 34.5886 23.7919C34.137 23.537 33.8993 23.277 33.877 23.0118C33.8582 22.7433 33.9557 22.4645 34.1713 22.1771C34.3851 21.8897 34.5886 21.575 34.7802 21.2328C34.8435 21.1234 34.9119 21.0207 34.9855 20.9249C35.0573 20.8291 35.1377 20.7505 35.225 20.6855C35.461 20.5178 35.7074 20.4648 35.9639 20.5281C36.2188 20.5931 36.4669 20.6991 36.7098 20.8497C36.9561 20.9968 37.1767 21.1234 37.3735 21.2328C38.0337 21.5938 38.759 21.8606 39.5493 22.0334C40.3379 22.2027 41.1042 22.266 41.8483 22.225C42.4043 22.1805 42.9175 22.0573 43.3879 21.8555C43.8566 21.6554 44.1337 21.3731 44.2158 21.007C44.3013 20.6427 44.0464 20.2168 43.4494 19.7275C42.6592 19.1083 41.8227 18.5951 40.9383 18.188C40.0522 17.7826 39.1405 17.4319 38.2014 17.1343C37.3256 16.8572 36.6208 16.4415 36.0871 15.889C35.5568 15.333 35.1788 14.7121 34.9513 14.0279C34.7272 13.3436 34.6588 12.6834 34.746 12.0436C34.8504 11.3594 35.1155 10.7093 35.5397 10.0935C35.9674 9.47431 36.5011 8.92863 37.1408 8.45822C37.784 7.98953 38.4785 7.66965 39.2277 7.5003C39.652 7.39082 40.0659 7.31214 40.473 7.26082C40.8784 7.20608 41.2838 7.17871 41.691 7.17871C42.4607 7.17871 43.2185 7.27108 43.9626 7.4524C44.7101 7.63544 45.4269 7.88689 46.1111 8.20506C46.7269 8.48388 47.1665 8.7456 47.4317 8.99193C47.7002 9.23483 47.7977 9.52563 47.7259 9.86774C47.6523 10.2099 47.4009 10.6922 46.9732 11.3115C46.6534 11.7768 46.2907 12.0368 45.8853 12.0915C45.4782 12.1462 45.0403 12.0898 44.5716 11.9204C44.1012 11.7477 43.6273 11.5373 43.1484 11.2909C42.6694 11.0446 42.199 10.8376 41.7389 10.6683C41.2821 10.5007 40.8596 10.4476 40.473 10.5109C40.0899 10.5759 39.7495 10.8428 39.4535 11.3115C39.1747 11.7768 39.0926 12.1873 39.2072 12.5431C39.3252 12.8955 39.5647 13.1982 39.9256 13.4531C40.29 13.7097 40.7125 13.9235 41.1915 14.0963C41.6739 14.2656 42.1391 14.4145 42.5873 14.541C43.0338 14.6693 43.3964 14.7857 43.6752 14.89C44.4861 15.1911 45.2763 15.5571 46.0427 15.9848C46.8124 16.409 47.4334 17.0077 47.9038 17.7775C48.5418 18.8414 48.7693 19.837 48.588 20.7676C48.405 21.6947 47.9722 22.5158 47.288 23.2308C46.6072 23.9475 45.7981 24.5172 44.859 24.9414Z" fill="black"/>
<path d="M65.6342 14.1921C65.7608 15.256 65.819 16.332 65.8053 17.4216C65.795 18.513 65.7916 19.5154 65.7916 20.4323C65.7916 20.6478 65.8121 21.0258 65.8532 21.5681C65.8977 22.112 65.9216 22.6817 65.9216 23.2787C65.9216 23.8774 65.8737 24.394 65.7779 24.8319C65.6821 25.2698 65.5059 25.5093 65.2511 25.5503C64.9089 25.5965 64.4642 25.6632 63.9168 25.7487C63.3728 25.8308 62.8511 25.848 62.3499 25.8035C61.847 25.7624 61.469 25.5828 61.2141 25.2629C60.9165 24.8798 60.8001 24.3974 60.8651 23.8124C60.9284 23.2239 60.949 22.7159 60.9267 22.2865C60.9267 21.0925 60.9199 19.9088 60.9062 18.7354C60.8959 17.5636 60.9028 16.3884 60.9267 15.2116C60.9267 14.1031 60.6599 13.2187 60.1262 12.5567C59.5925 11.8965 58.8227 11.5013 57.8203 11.373C57.7553 11.3508 57.692 11.3388 57.6287 11.3388C57.5637 11.3388 57.5004 11.3388 57.4371 11.3388C56.8162 11.3388 56.2346 11.5065 55.6923 11.8383C55.1484 12.1667 54.7002 12.6046 54.3444 13.152C53.992 13.696 53.785 14.2981 53.7218 14.9584C53.6568 15.7487 53.6208 16.5321 53.6123 17.3122C53.602 18.0888 53.6071 18.8619 53.626 19.6317C53.626 20.4853 53.6208 21.3491 53.6123 22.2249C53.602 23.1008 53.5986 23.9749 53.5986 24.8456C53.5986 25.1706 53.431 25.3964 53.0991 25.5229C52.7707 25.6512 52.3636 25.7145 51.8812 25.7145C51.4022 25.7145 50.9438 25.694 50.5059 25.6529C50.068 25.6085 49.7327 25.5845 49.5 25.5845C49.1802 25.5845 48.9612 25.4306 48.8432 25.1192C48.7234 24.8096 48.6773 24.4419 48.6995 24.0176C48.7217 23.59 48.7576 23.1795 48.809 22.786C48.8637 22.3892 48.8911 22.0847 48.8911 21.8691C48.9133 21.2533 48.9287 20.6358 48.939 20.0149C48.9475 19.3956 48.9527 18.7764 48.9527 18.1606C48.9527 15.4921 48.9253 12.8236 48.8705 10.1551C48.8192 7.48659 48.7953 4.83006 48.7953 2.18379C48.7953 1.84167 48.8363 1.52693 48.9184 1.23955C49.004 0.952173 49.2417 0.76572 49.63 0.67848C50.0987 0.574135 50.5897 0.548476 51.1011 0.603215C51.6109 0.654532 52.1018 0.690454 52.5722 0.712692C53.147 0.73664 53.5302 0.938488 53.7218 1.32166C53.9168 1.70483 53.9989 2.18037 53.9681 2.74486C53.9356 3.31106 53.8654 3.867 53.756 4.41439C53.6499 4.95835 53.5986 5.39968 53.5986 5.7418V7.37027C53.5986 7.60804 53.6944 7.8116 53.886 7.97924C54.0126 8.10753 54.1939 8.17082 54.4265 8.17082C54.4488 8.17082 54.4641 8.17082 54.4744 8.17082C54.4881 8.17082 54.5035 8.17082 54.5223 8.17082C54.8644 8.12977 55.1894 8.08187 55.5008 8.02713C55.8104 7.97239 56.1046 7.9245 56.3834 7.88344C56.9342 7.7791 57.4662 7.69528 57.9777 7.63028C58.4926 7.56699 58.9852 7.53449 59.4556 7.53449C60.9062 7.53449 62.0506 7.84581 62.8905 8.46504C63.7338 9.08085 64.3633 9.89509 64.7789 10.9077C65.198 11.9204 65.4837 13.0152 65.6342 14.1921Z" fill="black"/>
</g>
</svg>
